<svg width="56" height="23" viewBox="0 0 56 23" fill="none" xmlns="http://www.w3.org/2000/svg">
<g opacity="0.7">
<rect width="56" height="23" rx="10" fill="#FA9589"/>
<path d="M11.25 7.75L6.75 11.75L11.25 15.25" stroke="#151E3F" stroke-linecap="round" stroke-linejoin="round"/>
<path d="M20.038 15C19.87 15 19.73 14.948 19.618 14.844C19.506 14.732 19.45 14.596 19.45 14.436V6.192C19.45 6.024 19.502 5.888 19.606 5.784C19.718 5.68 19.854 5.628 20.014 5.628H22.906C23.418 5.628 23.874 5.732 24.274 5.94C24.682 6.148 25.002 6.436 25.234 6.804C25.466 7.172 25.582 7.596 25.582 8.076C25.582 8.484 25.47 8.852 25.246 9.18C25.03 9.5 24.738 9.748 24.37 9.924C24.898 10.06 25.322 10.32 25.642 10.704C25.97 11.088 26.134 11.584 26.134 12.192C26.134 12.744 26.006 13.232 25.75 13.656C25.494 14.072 25.138 14.4 24.682 14.64C24.234 14.88 23.718 15 23.134 15H20.038ZM20.578 13.944H23.134C23.51 13.944 23.838 13.876 24.118 13.74C24.406 13.604 24.63 13.408 24.79 13.152C24.958 12.888 25.042 12.568 25.042 12.192C25.042 11.84 24.958 11.544 24.79 11.304C24.63 11.064 24.406 10.88 24.118 10.752C23.838 10.624 23.51 10.56 23.134 10.56H20.578V13.944ZM20.578 9.504H22.906C23.37 9.504 23.75 9.384 24.046 9.144C24.35 8.896 24.502 8.54 24.502 8.076C24.502 7.612 24.35 7.264 24.046 7.032C23.75 6.8 23.37 6.684 22.906 6.684H20.578V9.504ZM30.669 15.048C30.069 15.048 29.533 14.904 29.061 14.616C28.589 14.328 28.217 13.932 27.945 13.428C27.673 12.924 27.537 12.356 27.537 11.724C27.537 11.084 27.681 10.516 27.969 10.02C28.265 9.516 28.661 9.12 29.157 8.832C29.661 8.536 30.225 8.388 30.849 8.388C31.481 8.388 32.045 8.536 32.541 8.832C33.037 9.12 33.429 9.516 33.717 10.02C34.013 10.524 34.165 11.092 34.173 11.724L33.741 11.832C33.741 12.44 33.605 12.988 33.333 13.476C33.061 13.964 32.693 14.348 32.229 14.628C31.773 14.908 31.253 15.048 30.669 15.048ZM30.849 14.064C31.281 14.064 31.665 13.964 32.001 13.764C32.337 13.556 32.601 13.276 32.793 12.924C32.993 12.564 33.093 12.164 33.093 11.724C33.093 11.276 32.993 10.876 32.793 10.524C32.601 10.164 32.337 9.884 32.001 9.684C31.665 9.476 31.281 9.372 30.849 9.372C30.433 9.372 30.053 9.476 29.709 9.684C29.365 9.884 29.093 10.164 28.893 10.524C28.701 10.876 28.605 11.276 28.605 11.724C28.605 12.164 28.701 12.564 28.893 12.924C29.093 13.276 29.365 13.556 29.709 13.764C30.053 13.964 30.433 14.064 30.849 14.064ZM33.609 15.012C33.449 15.012 33.317 14.96 33.213 14.856C33.109 14.752 33.057 14.62 33.057 14.46V12.54L33.285 11.388L34.173 11.724V14.46C34.173 14.62 34.117 14.752 34.005 14.856C33.901 14.96 33.769 15.012 33.609 15.012ZM38.9343 15.048C38.3023 15.048 37.7383 14.904 37.2423 14.616C36.7463 14.32 36.3543 13.924 36.0663 13.428C35.7863 12.924 35.6463 12.356 35.6463 11.724C35.6463 11.076 35.7823 10.5 36.0543 9.996C36.3343 9.492 36.7143 9.1 37.1943 8.82C37.6743 8.532 38.2303 8.388 38.8623 8.388C39.3343 8.388 39.7703 8.48 40.1703 8.664C40.5703 8.848 40.9263 9.124 41.2383 9.492C41.3423 9.604 41.3783 9.724 41.3463 9.852C41.3223 9.98 41.2423 10.092 41.1063 10.188C41.0103 10.26 40.8983 10.284 40.7703 10.26C40.6423 10.236 40.5303 10.168 40.4343 10.056C40.0103 9.6 39.4863 9.372 38.8623 9.372C38.4383 9.372 38.0623 9.472 37.7343 9.672C37.4143 9.872 37.1623 10.148 36.9783 10.5C36.8023 10.844 36.7143 11.252 36.7143 11.724C36.7143 12.172 36.8063 12.572 36.9903 12.924C37.1823 13.276 37.4463 13.556 37.7823 13.764C38.1183 13.964 38.5023 14.064 38.9343 14.064C39.2303 14.064 39.4943 14.028 39.7263 13.956C39.9583 13.884 40.1663 13.768 40.3503 13.608C40.4623 13.512 40.5783 13.46 40.6983 13.452C40.8263 13.444 40.9383 13.48 41.0343 13.56C41.1543 13.664 41.2223 13.78 41.2383 13.908C41.2543 14.036 41.2103 14.148 41.1063 14.244C40.5303 14.78 39.8063 15.048 38.9343 15.048ZM44.1619 12.684L43.4899 11.94L47.3419 8.496C47.4459 8.392 47.5619 8.344 47.6899 8.352C47.8259 8.352 47.9419 8.408 48.0379 8.52C48.1419 8.632 48.1899 8.756 48.1819 8.892C48.1819 9.02 48.1259 9.132 48.0139 9.228L44.1619 12.684ZM43.7059 15C43.5459 15 43.4139 14.952 43.3099 14.856C43.2139 14.752 43.1659 14.62 43.1659 14.46V6.168C43.1659 6.008 43.2139 5.88 43.3099 5.784C43.4139 5.68 43.5459 5.628 43.7059 5.628C43.8659 5.628 43.9939 5.68 44.0899 5.784C44.1939 5.88 44.2459 6.008 44.2459 6.168V14.46C44.2459 14.62 44.1939 14.752 44.0899 14.856C43.9939 14.952 43.8659 15 43.7059 15ZM48.0499 14.94C47.9299 15.036 47.7979 15.076 47.6539 15.06C47.5179 15.052 47.4019 14.988 47.3059 14.868L44.7859 11.76L45.5419 11.04L48.1219 14.22C48.2179 14.332 48.2579 14.456 48.2419 14.592C48.2339 14.72 48.1699 14.836 48.0499 14.94Z" fill="#151E3F"/>
</g>
</svg>
