<svg width="34" height="34" viewBox="0 0 34 34" fill="none" xmlns="http://www.w3.org/2000/svg">
<path d="M34 7.2856C34 5.99741 33.4883 4.76198 32.5774 3.85108C31.6665 2.94019 30.4311 2.42846 29.1429 2.42846H27.9286V1.24833C27.9286 0.594889 27.4262 0.034041 26.7727 0.00140704C26.6085 -0.00650343 26.4445 0.0190021 26.2904 0.0763784C26.1364 0.133755 25.9956 0.221807 25.8766 0.3352C25.7576 0.448593 25.6629 0.584965 25.5981 0.736054C25.5334 0.887142 25.5 1.0498 25.5 1.21417V2.42846H8.5V1.24833C8.5 0.594889 7.99759 0.034041 7.34415 0.00140704C7.17997 -0.00650343 7.01589 0.0190021 6.86186 0.0763784C6.70782 0.133755 6.56704 0.221807 6.44804 0.3352C6.32904 0.448593 6.2343 0.584965 6.16957 0.736054C6.10483 0.887142 6.07144 1.0498 6.07143 1.21417V2.42846H4.85714C3.56895 2.42846 2.33352 2.94019 1.42262 3.85108C0.511733 4.76198 0 5.99741 0 7.2856V8.19632C0 8.27683 0.0319834 8.35404 0.0889141 8.41098C0.145845 8.46791 0.223059 8.49989 0.303571 8.49989H33.6964C33.7769 8.49989 33.8542 8.46791 33.9111 8.41098C33.968 8.35404 34 8.27683 34 8.19632V7.2856Z" fill="#FA9589"/>
<path d="M0 29.1429C0 30.4311 0.511733 31.6665 1.42262 32.5774C2.33352 33.4883 3.56895 34 4.85714 34H29.1429C30.4311 34 31.6665 33.4883 32.5774 32.5774C33.4883 31.6665 34 30.4311 34 29.1429V11.1563C34 11.0959 33.976 11.038 33.9333 10.9953C33.8906 10.9526 33.8327 10.9286 33.7723 10.9286H0.227679C0.167294 10.9286 0.109384 10.9526 0.0666856 10.9953C0.0239876 11.038 0 11.0959 0 11.1563V29.1429ZM26.1071 13.3572C26.4674 13.3572 26.8195 13.464 27.1191 13.6641C27.4186 13.8643 27.6521 14.1487 27.7899 14.4816C27.9278 14.8144 27.9639 15.1806 27.8936 15.5339C27.8233 15.8873 27.6498 16.2118 27.3951 16.4665C27.1404 16.7213 26.8158 16.8947 26.4625 16.965C26.1092 17.0353 25.7429 16.9992 25.4101 16.8614C25.0773 16.7235 24.7928 16.4901 24.5927 16.1905C24.3925 15.891 24.2857 15.5388 24.2857 15.1786C24.2857 14.6955 24.4776 14.2322 24.8192 13.8906C25.1608 13.5491 25.6241 13.3572 26.1071 13.3572ZM26.1071 19.4286C26.4674 19.4286 26.8195 19.5354 27.1191 19.7356C27.4186 19.9357 27.6521 20.2202 27.7899 20.553C27.9278 20.8858 27.9639 21.252 27.8936 21.6054C27.8233 21.9587 27.6498 22.2832 27.3951 22.538C27.1404 22.7927 26.8158 22.9662 26.4625 23.0364C26.1092 23.1067 25.7429 23.0707 25.4101 22.9328C25.0773 22.7949 24.7928 22.5615 24.5927 22.2619C24.3925 21.9624 24.2857 21.6103 24.2857 21.25C24.2857 20.7669 24.4776 20.3037 24.8192 19.9621C25.1608 19.6205 25.6241 19.4286 26.1071 19.4286ZM20.0357 13.3572C20.396 13.3572 20.7481 13.464 21.0476 13.6641C21.3472 13.8643 21.5806 14.1487 21.7185 14.4816C21.8564 14.8144 21.8924 15.1806 21.8221 15.5339C21.7519 15.8873 21.5784 16.2118 21.3237 16.4665C21.0689 16.7213 20.7444 16.8947 20.3911 16.965C20.0377 17.0353 19.6715 16.9992 19.3387 16.8614C19.0059 16.7235 18.7214 16.4901 18.5213 16.1905C18.3211 15.891 18.2143 15.5388 18.2143 15.1786C18.2143 14.6955 18.4062 14.2322 18.7478 13.8906C19.0894 13.5491 19.5526 13.3572 20.0357 13.3572ZM20.0357 19.4286C20.396 19.4286 20.7481 19.5354 21.0476 19.7356C21.3472 19.9357 21.5806 20.2202 21.7185 20.553C21.8564 20.8858 21.8924 21.252 21.8221 21.6054C21.7519 21.9587 21.5784 22.2832 21.3237 22.538C21.0689 22.7927 20.7444 22.9662 20.3911 23.0364C20.0377 23.1067 19.6715 23.0707 19.3387 22.9328C19.0059 22.7949 18.7214 22.5615 18.5213 22.2619C18.3211 21.9624 18.2143 21.6103 18.2143 21.25C18.2143 20.7669 18.4062 20.3037 18.7478 19.9621C19.0894 19.6205 19.5526 19.4286 20.0357 19.4286ZM20.0357 25.5C20.396 25.5 20.7481 25.6068 21.0476 25.807C21.3472 26.0071 21.5806 26.2916 21.7185 26.6244C21.8564 26.9572 21.8924 27.3235 21.8221 27.6768C21.7519 28.0301 21.5784 28.3547 21.3237 28.6094C21.0689 28.8641 20.7444 29.0376 20.3911 29.1079C20.0377 29.1782 19.6715 29.1421 19.3387 29.0042C19.0059 28.8664 18.7214 28.6329 18.5213 28.3334C18.3211 28.0338 18.2143 27.6817 18.2143 27.3214C18.2143 26.8384 18.4062 26.3751 18.7478 26.0335C19.0894 25.6919 19.5526 25.5 20.0357 25.5ZM13.9643 19.4286C14.3245 19.4286 14.6767 19.5354 14.9762 19.7356C15.2757 19.9357 15.5092 20.2202 15.6471 20.553C15.7849 20.8858 15.821 21.252 15.7507 21.6054C15.6804 21.9587 15.507 22.2832 15.2522 22.538C14.9975 22.7927 14.673 22.9662 14.3196 23.0364C13.9663 23.1067 13.6001 23.0707 13.2673 22.9328C12.9344 22.7949 12.65 22.5615 12.4498 22.2619C12.2497 21.9624 12.1429 21.6103 12.1429 21.25C12.1429 20.7669 12.3348 20.3037 12.6763 19.9621C13.0179 19.6205 13.4812 19.4286 13.9643 19.4286ZM13.9643 25.5C14.3245 25.5 14.6767 25.6068 14.9762 25.807C15.2757 26.0071 15.5092 26.2916 15.6471 26.6244C15.7849 26.9572 15.821 27.3235 15.7507 27.6768C15.6804 28.0301 15.507 28.3547 15.2522 28.6094C14.9975 28.8641 14.673 29.0376 14.3196 29.1079C13.9663 29.1782 13.6001 29.1421 13.2673 29.0042C12.9344 28.8664 12.65 28.6329 12.4498 28.3334C12.2497 28.0338 12.1429 27.6817 12.1429 27.3214C12.1429 26.8384 12.3348 26.3751 12.6763 26.0335C13.0179 25.6919 13.4812 25.5 13.9643 25.5ZM7.89286 19.4286C8.2531 19.4286 8.60526 19.5354 8.90479 19.7356C9.20432 19.9357 9.43778 20.2202 9.57564 20.553C9.7135 20.8858 9.74957 21.252 9.67929 21.6054C9.60901 21.9587 9.43553 22.2832 9.1808 22.538C8.92607 22.7927 8.60152 22.9662 8.2482 23.0364C7.89488 23.1067 7.52865 23.0707 7.19583 22.9328C6.863 22.7949 6.57854 22.5615 6.3784 22.2619C6.17825 21.9624 6.07143 21.6103 6.07143 21.25C6.07143 20.7669 6.26333 20.3037 6.60491 19.9621C6.9465 19.6205 7.40978 19.4286 7.89286 19.4286ZM7.89286 25.5C8.2531 25.5 8.60526 25.6068 8.90479 25.807C9.20432 26.0071 9.43778 26.2916 9.57564 26.6244C9.7135 26.9572 9.74957 27.3235 9.67929 27.6768C9.60901 28.0301 9.43553 28.3547 9.1808 28.6094C8.92607 28.8641 8.60152 29.0376 8.2482 29.1079C7.89488 29.1782 7.52865 29.1421 7.19583 29.0042C6.863 28.8664 6.57854 28.6329 6.3784 28.3334C6.17825 28.0338 6.07143 27.6817 6.07143 27.3214C6.07143 26.8384 6.26333 26.3751 6.60491 26.0335C6.9465 25.6919 7.40978 25.5 7.89286 25.5Z" fill="#FA9589"/>
</svg>
