<svg width="10" height="12" viewBox="0 0 10 12" fill="none" xmlns="http://www.w3.org/2000/svg">
<path d="M0.570059 11.715C0.400059 11.715 0.265059 11.665 0.165059 11.565C0.0750586 11.465 0.0250586 11.34 0.0150586 11.19C0.00505864 11.04 0.0500586 10.9 0.150059 10.77L4.06506 5.43003L4.60506 4.99503L8.11506 0.210027C8.22506 0.0700266 8.37506 2.65837e-05 8.56506 2.65837e-05C8.72506 2.65837e-05 8.85006 0.0550265 8.94006 0.165026C9.04006 0.265026 9.09506 0.390026 9.10506 0.540026C9.11506 0.680026 9.08006 0.805027 9.00006 0.915026L5.31006 5.92503L4.80006 6.34503L0.990059 11.535C0.880059 11.655 0.740059 11.715 0.570059 11.715ZM8.68506 11.715C8.60506 11.715 8.52506 11.7 8.44506 11.67C8.36506 11.63 8.29506 11.575 8.23506 11.505L4.50006 6.33003L4.03506 5.98503L0.390059 0.915026C0.300059 0.795026 0.260059 0.665026 0.270059 0.525026C0.280059 0.375026 0.330059 0.250026 0.420059 0.150026C0.520059 0.0500265 0.650059 2.65837e-05 0.810059 2.65837e-05C1.00006 2.65837e-05 1.15006 0.0700266 1.26006 0.210027L4.78506 5.08503L5.20506 5.37003L9.10506 10.77C9.19506 10.89 9.23506 11.025 9.22506 11.175C9.22506 11.325 9.17506 11.455 9.07506 11.565C8.98506 11.665 8.85506 11.715 8.68506 11.715Z" fill="white"/>
</svg>
