<svg width="27" height="27" viewBox="0 0 27 27" fill="none" xmlns="http://www.w3.org/2000/svg">
<path d="M13.7931 5.34096C13.7146 5.26586 13.6101 5.22394 13.5015 5.22394C13.3928 5.22394 13.2884 5.26586 13.2099 5.34096L3.50146 14.6154C3.46023 14.6548 3.42743 14.7022 3.40504 14.7547C3.38266 14.8072 3.37115 14.8636 3.37121 14.9207L3.36963 23.625C3.36963 24.0726 3.54742 24.5018 3.86389 24.8183C4.18035 25.1347 4.60958 25.3125 5.05713 25.3125H10.1249C10.3487 25.3125 10.5633 25.2236 10.7215 25.0654C10.8798 24.9072 10.9687 24.6925 10.9687 24.4688V17.2969C10.9687 17.185 11.0131 17.0777 11.0922 16.9986C11.1713 16.9195 11.2786 16.875 11.3905 16.875H15.6093C15.7212 16.875 15.8285 16.9195 15.9076 16.9986C15.9867 17.0777 16.0312 17.185 16.0312 17.2969V24.4688C16.0312 24.6925 16.12 24.9072 16.2783 25.0654C16.4365 25.2236 16.6511 25.3125 16.8749 25.3125H21.9406C22.3881 25.3125 22.8173 25.1347 23.1338 24.8183C23.4503 24.5018 23.6281 24.0726 23.6281 23.625V14.9207C23.6281 14.8636 23.6166 14.8072 23.5942 14.7547C23.5718 14.7022 23.539 14.6548 23.4978 14.6154L13.7931 5.34096Z" fill="white"/>
<path d="M25.8879 12.8751L21.9433 9.10143V3.375C21.9433 3.15122 21.8544 2.93661 21.6962 2.77838C21.538 2.62014 21.3233 2.53125 21.0996 2.53125H18.5683C18.3445 2.53125 18.1299 2.62014 17.9717 2.77838C17.8135 2.93661 17.7246 3.15122 17.7246 3.375V5.0625L14.6702 2.14207C14.3844 1.85309 13.9593 1.6875 13.5 1.6875C13.0423 1.6875 12.6183 1.85309 12.3325 2.1426L1.11588 12.874C0.787872 13.1904 0.746739 13.7109 1.04522 14.0537C1.12017 14.1402 1.21194 14.2106 1.31495 14.2605C1.41796 14.3104 1.53005 14.3389 1.6444 14.3441C1.75876 14.3494 1.87298 14.3313 1.98011 14.2909C2.08725 14.2506 2.18506 14.1889 2.2676 14.1096L13.21 3.65344C13.2885 3.57833 13.393 3.53642 13.5016 3.53642C13.6103 3.53642 13.7147 3.57833 13.7932 3.65344L24.7367 14.1096C24.8979 14.2642 25.1138 14.3486 25.3371 14.3442C25.5604 14.3399 25.7729 14.2472 25.9279 14.0864C26.2517 13.751 26.2248 13.1973 25.8879 12.8751Z" fill="white"/>
</svg>
