<svg width="34" height="34" viewBox="0 0 34 34" fill="none" xmlns="http://www.w3.org/2000/svg">
<path d="M17.3692 6.72561C17.2703 6.63103 17.1388 6.57825 17.002 6.57825C16.8652 6.57825 16.7336 6.63103 16.6348 6.72561L4.40936 18.4045C4.35744 18.4541 4.31614 18.5138 4.28794 18.5799C4.25975 18.646 4.24526 18.7171 4.24534 18.789L4.24335 29.75C4.24335 30.3136 4.46723 30.8541 4.86575 31.2526C5.26426 31.6511 5.80476 31.875 6.36835 31.875H12.75C13.0318 31.875 13.302 31.763 13.5013 31.5638C13.7005 31.3645 13.8125 31.0943 13.8125 30.8125V21.7812C13.8125 21.6403 13.8685 21.5052 13.9681 21.4056C14.0677 21.306 14.2028 21.25 14.3437 21.25H19.6562C19.7971 21.25 19.9323 21.306 20.0319 21.4056C20.1315 21.5052 20.1875 21.6403 20.1875 21.7812V30.8125C20.1875 31.0943 20.2994 31.3645 20.4987 31.5638C20.6979 31.763 20.9682 31.875 21.25 31.875H27.629C28.1926 31.875 28.7331 31.6511 29.1316 31.2526C29.5301 30.8541 29.754 30.3136 29.754 29.75V18.789C29.7541 18.7171 29.7396 18.646 29.7114 18.5799C29.6832 18.5138 29.6419 18.4541 29.5899 18.4045L17.3692 6.72561Z" fill="white"/>
<path d="M32.5995 16.2131L27.6323 11.4611V4.25C27.6323 3.96821 27.5204 3.69796 27.3211 3.4987C27.1219 3.29944 26.8516 3.1875 26.5698 3.1875H23.3823C23.1005 3.1875 22.8303 3.29944 22.631 3.4987C22.4318 3.69796 22.3198 3.96821 22.3198 4.25V6.375L18.4736 2.69742C18.1137 2.33352 17.5784 2.125 17 2.125C16.4236 2.125 15.8897 2.33352 15.5298 2.69809L1.40518 16.2118C0.992135 16.6102 0.940338 17.2656 1.3162 17.6973C1.41058 17.8062 1.52615 17.8948 1.65586 17.9577C1.78558 18.0206 1.92673 18.0564 2.07073 18.063C2.21473 18.0696 2.35856 18.0468 2.49348 17.996C2.62839 17.9452 2.75156 17.8675 2.85549 17.7677L16.6348 4.60062C16.7337 4.50605 16.8652 4.45326 17.002 4.45326C17.1388 4.45326 17.2704 4.50605 17.3692 4.60062L31.1499 17.7677C31.3529 17.9623 31.6248 18.0686 31.906 18.0631C32.1872 18.0576 32.4547 17.9409 32.65 17.7384C33.0577 17.3161 33.0239 16.6188 32.5995 16.2131Z" fill="white"/>
</svg>
